<mxfile host="app.diagrams.net" agent="Mozilla/5.0 (Macintosh; Intel Mac OS X 10_15_7) AppleWebKit/537.36 (KHTML, like Gecko) Chrome/132.0.0.0 Safari/537.36" version="26.0.10">
  <diagram name="Page-1" id="03018318-947c-dd8e-b7a3-06fadd420f32">
    <mxGraphModel dx="1207" dy="765" grid="1" gridSize="10" guides="1" tooltips="1" connect="1" arrows="1" fold="1" page="1" pageScale="1" pageWidth="1100" pageHeight="850" background="none" math="0" shadow="0">
      <root>
        <mxCell id="0" />
        <mxCell id="1" parent="0" />
        <mxCell id="6DgqTnudn0VtPVxvnlF_-19" value="" style="rounded=0;whiteSpace=wrap;html=1;fillColor=none;" parent="1" vertex="1">
          <mxGeometry x="40" y="100" width="990" height="50" as="geometry" />
        </mxCell>
        <mxCell id="677b7b8949515195-1" value="" style="whiteSpace=wrap;html=1;rounded=0;shadow=0;labelBackgroundColor=none;strokeColor=#000000;strokeWidth=1;fillColor=none;fontFamily=Verdana;fontSize=12;fontColor=#000000;align=center;comic=1;" parent="1" vertex="1">
          <mxGeometry x="20" y="40" width="1060" height="540" as="geometry" />
        </mxCell>
        <mxCell id="zX-MKMj06BqSPDNbv460-1" value="&lt;font style=&quot;font-size: 18px;&quot;&gt;companyitassets/assets/hardware/assignemployee/25&lt;/font&gt;" style="html=1;strokeWidth=1;shadow=0;dashed=0;shape=mxgraph.ios7ui.url;fillColor=#e0e0e0;strokeColor=#c0c0c0;buttonText=;strokeColor2=#222222;fontColor=#222222;fontSize=8;spacingTop=2;align=center;whiteSpace=wrap;" parent="1" vertex="1">
          <mxGeometry x="20" width="1050" height="32.5" as="geometry" />
        </mxCell>
        <mxCell id="qXXK7IakLX90gNUS_IdI-1" value="&lt;font style=&quot;font-size: 20px;&quot;&gt;Assign&lt;/font&gt;" style="text;strokeColor=none;fillColor=none;html=1;fontSize=24;fontStyle=1;verticalAlign=middle;align=center;" parent="1" vertex="1">
          <mxGeometry x="40" y="50" width="150" height="40" as="geometry" />
        </mxCell>
        <mxCell id="qXXK7IakLX90gNUS_IdI-18" value="Go Back" style="html=1;shadow=0;dashed=0;shape=mxgraph.bootstrap.rrect;rSize=5;strokeColor=none;strokeWidth=1;fillColor=none;fontColor=#0085FC;whiteSpace=wrap;align=center;verticalAlign=middle;spacingLeft=0;fontStyle=0;fontSize=16;spacing=5;" parent="1" vertex="1">
          <mxGeometry x="180" y="50" width="70" height="40" as="geometry" />
        </mxCell>
        <mxCell id="6DgqTnudn0VtPVxvnlF_-14" value="Search" style="strokeWidth=1;shadow=0;dashed=0;align=center;html=1;shape=mxgraph.mockup.forms.searchBox;strokeColor=#999999;mainText=;strokeColor2=#008cff;fontColor=#666666;fontSize=17;align=left;spacingLeft=3;whiteSpace=wrap;" parent="1" vertex="1">
          <mxGeometry x="450" y="111.5" width="150" height="30" as="geometry" />
        </mxCell>
        <mxCell id="6DgqTnudn0VtPVxvnlF_-15" value="Starts with" style="text;html=1;align=center;verticalAlign=middle;whiteSpace=wrap;rounded=0;" parent="1" vertex="1">
          <mxGeometry x="50" y="110" width="90" height="30" as="geometry" />
        </mxCell>
        <mxCell id="6DgqTnudn0VtPVxvnlF_-16" value="Any" style="html=1;shadow=0;dashed=0;shape=mxgraph.bootstrap.rrect;rSize=5;strokeColor=none;strokeWidth=1;fillColor=#6C767D;fontColor=#ffffff;whiteSpace=wrap;align=right;verticalAlign=middle;fontStyle=0;fontSize=14;spacingRight=20;" parent="1" vertex="1">
          <mxGeometry x="130" y="105" width="60" height="35" as="geometry" />
        </mxCell>
        <mxCell id="6DgqTnudn0VtPVxvnlF_-17" value="" style="shape=triangle;direction=south;fillColor=#ffffff;strokeColor=none;perimeter=none;" parent="6DgqTnudn0VtPVxvnlF_-16" vertex="1">
          <mxGeometry x="1" y="0.5" width="10" height="5" relative="1" as="geometry">
            <mxPoint x="-17" y="-2.5" as="offset" />
          </mxGeometry>
        </mxCell>
        <mxCell id="6DgqTnudn0VtPVxvnlF_-18" value="Apply" style="rounded=1;fillColor=#0057D8;strokeColor=none;html=1;whiteSpace=wrap;fontColor=#ffffff;align=center;verticalAlign=middle;fontStyle=0;fontSize=12;sketch=0;" parent="1" vertex="1">
          <mxGeometry x="910" y="110" width="86" height="33" as="geometry" />
        </mxCell>
        <mxCell id="6DgqTnudn0VtPVxvnlF_-20" value="" style="shape=table;startSize=0;container=1;collapsible=0;childLayout=tableLayout;fontSize=16;align=left;" parent="1" vertex="1">
          <mxGeometry x="40" y="160" width="990" height="400" as="geometry" />
        </mxCell>
        <mxCell id="6DgqTnudn0VtPVxvnlF_-21" value="" style="shape=tableRow;horizontal=0;startSize=0;swimlaneHead=0;swimlaneBody=0;strokeColor=inherit;top=0;left=0;bottom=0;right=0;collapsible=0;dropTarget=0;fillColor=none;points=[[0,0.5],[1,0.5]];portConstraint=eastwest;fontSize=16;" parent="6DgqTnudn0VtPVxvnlF_-20" vertex="1">
          <mxGeometry width="990" height="40" as="geometry" />
        </mxCell>
        <mxCell id="6DgqTnudn0VtPVxvnlF_-22" value="Doe, Jane" style="shape=partialRectangle;html=1;whiteSpace=wrap;connectable=0;strokeColor=inherit;overflow=hidden;fillColor=none;top=0;left=0;bottom=0;right=0;pointerEvents=1;fontSize=16;align=left;" parent="6DgqTnudn0VtPVxvnlF_-21" vertex="1">
          <mxGeometry width="830" height="40" as="geometry">
            <mxRectangle width="830" height="40" as="alternateBounds" />
          </mxGeometry>
        </mxCell>
        <mxCell id="6DgqTnudn0VtPVxvnlF_-23" value="&lt;font style=&quot;color: light-dark(rgb(0, 0, 0), rgb(51, 153, 255));&quot;&gt;Assign&lt;/font&gt;" style="shape=partialRectangle;html=1;whiteSpace=wrap;connectable=0;strokeColor=inherit;overflow=hidden;fillColor=none;top=0;left=0;bottom=0;right=0;pointerEvents=1;fontSize=16;" parent="6DgqTnudn0VtPVxvnlF_-21" vertex="1">
          <mxGeometry x="830" width="160" height="40" as="geometry">
            <mxRectangle width="160" height="40" as="alternateBounds" />
          </mxGeometry>
        </mxCell>
        <mxCell id="6DgqTnudn0VtPVxvnlF_-25" value="" style="shape=tableRow;horizontal=0;startSize=0;swimlaneHead=0;swimlaneBody=0;strokeColor=inherit;top=0;left=0;bottom=0;right=0;collapsible=0;dropTarget=0;fillColor=none;points=[[0,0.5],[1,0.5]];portConstraint=eastwest;fontSize=16;" parent="6DgqTnudn0VtPVxvnlF_-20" vertex="1">
          <mxGeometry y="40" width="990" height="40" as="geometry" />
        </mxCell>
        <mxCell id="6DgqTnudn0VtPVxvnlF_-26" value="Doe, John" style="shape=partialRectangle;html=1;whiteSpace=wrap;connectable=0;strokeColor=inherit;overflow=hidden;fillColor=none;top=0;left=0;bottom=0;right=0;pointerEvents=1;fontSize=16;align=left;" parent="6DgqTnudn0VtPVxvnlF_-25" vertex="1">
          <mxGeometry width="830" height="40" as="geometry">
            <mxRectangle width="830" height="40" as="alternateBounds" />
          </mxGeometry>
        </mxCell>
        <mxCell id="6DgqTnudn0VtPVxvnlF_-27" value="&lt;span style=&quot;color: rgb(51, 153, 255);&quot;&gt;Assign&lt;/span&gt;" style="shape=partialRectangle;html=1;whiteSpace=wrap;connectable=0;strokeColor=inherit;overflow=hidden;fillColor=none;top=0;left=0;bottom=0;right=0;pointerEvents=1;fontSize=16;" parent="6DgqTnudn0VtPVxvnlF_-25" vertex="1">
          <mxGeometry x="830" width="160" height="40" as="geometry">
            <mxRectangle width="160" height="40" as="alternateBounds" />
          </mxGeometry>
        </mxCell>
        <mxCell id="6DgqTnudn0VtPVxvnlF_-29" value="" style="shape=tableRow;horizontal=0;startSize=0;swimlaneHead=0;swimlaneBody=0;strokeColor=inherit;top=0;left=0;bottom=0;right=0;collapsible=0;dropTarget=0;fillColor=none;points=[[0,0.5],[1,0.5]];portConstraint=eastwest;fontSize=16;" parent="6DgqTnudn0VtPVxvnlF_-20" vertex="1">
          <mxGeometry y="80" width="990" height="40" as="geometry" />
        </mxCell>
        <mxCell id="6DgqTnudn0VtPVxvnlF_-30" value="Smith, Emily" style="shape=partialRectangle;html=1;whiteSpace=wrap;connectable=0;strokeColor=inherit;overflow=hidden;fillColor=none;top=0;left=0;bottom=0;right=0;pointerEvents=1;fontSize=16;align=left;" parent="6DgqTnudn0VtPVxvnlF_-29" vertex="1">
          <mxGeometry width="830" height="40" as="geometry">
            <mxRectangle width="830" height="40" as="alternateBounds" />
          </mxGeometry>
        </mxCell>
        <mxCell id="6DgqTnudn0VtPVxvnlF_-31" value="&lt;span style=&quot;color: rgb(51, 153, 255);&quot;&gt;Assign&lt;/span&gt;" style="shape=partialRectangle;html=1;whiteSpace=wrap;connectable=0;strokeColor=inherit;overflow=hidden;fillColor=none;top=0;left=0;bottom=0;right=0;pointerEvents=1;fontSize=16;" parent="6DgqTnudn0VtPVxvnlF_-29" vertex="1">
          <mxGeometry x="830" width="160" height="40" as="geometry">
            <mxRectangle width="160" height="40" as="alternateBounds" />
          </mxGeometry>
        </mxCell>
        <mxCell id="6DgqTnudn0VtPVxvnlF_-33" style="shape=tableRow;horizontal=0;startSize=0;swimlaneHead=0;swimlaneBody=0;strokeColor=inherit;top=0;left=0;bottom=0;right=0;collapsible=0;dropTarget=0;fillColor=none;points=[[0,0.5],[1,0.5]];portConstraint=eastwest;fontSize=16;" parent="6DgqTnudn0VtPVxvnlF_-20" vertex="1">
          <mxGeometry y="120" width="990" height="40" as="geometry" />
        </mxCell>
        <mxCell id="6DgqTnudn0VtPVxvnlF_-34" value="Testerburger, Wendy" style="shape=partialRectangle;html=1;whiteSpace=wrap;connectable=0;strokeColor=inherit;overflow=hidden;fillColor=none;top=0;left=0;bottom=0;right=0;pointerEvents=1;fontSize=16;align=left;" parent="6DgqTnudn0VtPVxvnlF_-33" vertex="1">
          <mxGeometry width="830" height="40" as="geometry">
            <mxRectangle width="830" height="40" as="alternateBounds" />
          </mxGeometry>
        </mxCell>
        <mxCell id="6DgqTnudn0VtPVxvnlF_-35" value="&lt;span style=&quot;color: rgb(51, 153, 255);&quot;&gt;Assign&lt;/span&gt;" style="shape=partialRectangle;html=1;whiteSpace=wrap;connectable=0;strokeColor=inherit;overflow=hidden;fillColor=none;top=0;left=0;bottom=0;right=0;pointerEvents=1;fontSize=16;" parent="6DgqTnudn0VtPVxvnlF_-33" vertex="1">
          <mxGeometry x="830" width="160" height="40" as="geometry">
            <mxRectangle width="160" height="40" as="alternateBounds" />
          </mxGeometry>
        </mxCell>
        <mxCell id="6DgqTnudn0VtPVxvnlF_-36" style="shape=tableRow;horizontal=0;startSize=0;swimlaneHead=0;swimlaneBody=0;strokeColor=inherit;top=0;left=0;bottom=0;right=0;collapsible=0;dropTarget=0;fillColor=none;points=[[0,0.5],[1,0.5]];portConstraint=eastwest;fontSize=16;" parent="6DgqTnudn0VtPVxvnlF_-20" vertex="1">
          <mxGeometry y="160" width="990" height="40" as="geometry" />
        </mxCell>
        <mxCell id="6DgqTnudn0VtPVxvnlF_-37" value="..." style="shape=partialRectangle;html=1;whiteSpace=wrap;connectable=0;strokeColor=inherit;overflow=hidden;fillColor=none;top=0;left=0;bottom=0;right=0;pointerEvents=1;fontSize=16;" parent="6DgqTnudn0VtPVxvnlF_-36" vertex="1">
          <mxGeometry width="830" height="40" as="geometry">
            <mxRectangle width="830" height="40" as="alternateBounds" />
          </mxGeometry>
        </mxCell>
        <mxCell id="6DgqTnudn0VtPVxvnlF_-38" style="shape=partialRectangle;html=1;whiteSpace=wrap;connectable=0;strokeColor=inherit;overflow=hidden;fillColor=none;top=0;left=0;bottom=0;right=0;pointerEvents=1;fontSize=16;" parent="6DgqTnudn0VtPVxvnlF_-36" vertex="1">
          <mxGeometry x="830" width="160" height="40" as="geometry">
            <mxRectangle width="160" height="40" as="alternateBounds" />
          </mxGeometry>
        </mxCell>
        <mxCell id="6DgqTnudn0VtPVxvnlF_-39" style="shape=tableRow;horizontal=0;startSize=0;swimlaneHead=0;swimlaneBody=0;strokeColor=inherit;top=0;left=0;bottom=0;right=0;collapsible=0;dropTarget=0;fillColor=none;points=[[0,0.5],[1,0.5]];portConstraint=eastwest;fontSize=16;" parent="6DgqTnudn0VtPVxvnlF_-20" vertex="1">
          <mxGeometry y="200" width="990" height="40" as="geometry" />
        </mxCell>
        <mxCell id="6DgqTnudn0VtPVxvnlF_-40" value="..." style="shape=partialRectangle;html=1;whiteSpace=wrap;connectable=0;strokeColor=inherit;overflow=hidden;fillColor=none;top=0;left=0;bottom=0;right=0;pointerEvents=1;fontSize=16;" parent="6DgqTnudn0VtPVxvnlF_-39" vertex="1">
          <mxGeometry width="830" height="40" as="geometry">
            <mxRectangle width="830" height="40" as="alternateBounds" />
          </mxGeometry>
        </mxCell>
        <mxCell id="6DgqTnudn0VtPVxvnlF_-41" style="shape=partialRectangle;html=1;whiteSpace=wrap;connectable=0;strokeColor=inherit;overflow=hidden;fillColor=none;top=0;left=0;bottom=0;right=0;pointerEvents=1;fontSize=16;" parent="6DgqTnudn0VtPVxvnlF_-39" vertex="1">
          <mxGeometry x="830" width="160" height="40" as="geometry">
            <mxRectangle width="160" height="40" as="alternateBounds" />
          </mxGeometry>
        </mxCell>
        <mxCell id="6DgqTnudn0VtPVxvnlF_-42" style="shape=tableRow;horizontal=0;startSize=0;swimlaneHead=0;swimlaneBody=0;strokeColor=inherit;top=0;left=0;bottom=0;right=0;collapsible=0;dropTarget=0;fillColor=none;points=[[0,0.5],[1,0.5]];portConstraint=eastwest;fontSize=16;" parent="6DgqTnudn0VtPVxvnlF_-20" vertex="1">
          <mxGeometry y="240" width="990" height="40" as="geometry" />
        </mxCell>
        <mxCell id="6DgqTnudn0VtPVxvnlF_-43" value="..." style="shape=partialRectangle;html=1;whiteSpace=wrap;connectable=0;strokeColor=inherit;overflow=hidden;fillColor=none;top=0;left=0;bottom=0;right=0;pointerEvents=1;fontSize=16;" parent="6DgqTnudn0VtPVxvnlF_-42" vertex="1">
          <mxGeometry width="830" height="40" as="geometry">
            <mxRectangle width="830" height="40" as="alternateBounds" />
          </mxGeometry>
        </mxCell>
        <mxCell id="6DgqTnudn0VtPVxvnlF_-44" style="shape=partialRectangle;html=1;whiteSpace=wrap;connectable=0;strokeColor=inherit;overflow=hidden;fillColor=none;top=0;left=0;bottom=0;right=0;pointerEvents=1;fontSize=16;" parent="6DgqTnudn0VtPVxvnlF_-42" vertex="1">
          <mxGeometry x="830" width="160" height="40" as="geometry">
            <mxRectangle width="160" height="40" as="alternateBounds" />
          </mxGeometry>
        </mxCell>
        <mxCell id="6DgqTnudn0VtPVxvnlF_-45" style="shape=tableRow;horizontal=0;startSize=0;swimlaneHead=0;swimlaneBody=0;strokeColor=inherit;top=0;left=0;bottom=0;right=0;collapsible=0;dropTarget=0;fillColor=none;points=[[0,0.5],[1,0.5]];portConstraint=eastwest;fontSize=16;" parent="6DgqTnudn0VtPVxvnlF_-20" vertex="1">
          <mxGeometry y="280" width="990" height="40" as="geometry" />
        </mxCell>
        <mxCell id="6DgqTnudn0VtPVxvnlF_-46" value="..." style="shape=partialRectangle;html=1;whiteSpace=wrap;connectable=0;strokeColor=inherit;overflow=hidden;fillColor=none;top=0;left=0;bottom=0;right=0;pointerEvents=1;fontSize=16;" parent="6DgqTnudn0VtPVxvnlF_-45" vertex="1">
          <mxGeometry width="830" height="40" as="geometry">
            <mxRectangle width="830" height="40" as="alternateBounds" />
          </mxGeometry>
        </mxCell>
        <mxCell id="6DgqTnudn0VtPVxvnlF_-47" style="shape=partialRectangle;html=1;whiteSpace=wrap;connectable=0;strokeColor=inherit;overflow=hidden;fillColor=none;top=0;left=0;bottom=0;right=0;pointerEvents=1;fontSize=16;" parent="6DgqTnudn0VtPVxvnlF_-45" vertex="1">
          <mxGeometry x="830" width="160" height="40" as="geometry">
            <mxRectangle width="160" height="40" as="alternateBounds" />
          </mxGeometry>
        </mxCell>
        <mxCell id="6DgqTnudn0VtPVxvnlF_-48" style="shape=tableRow;horizontal=0;startSize=0;swimlaneHead=0;swimlaneBody=0;strokeColor=inherit;top=0;left=0;bottom=0;right=0;collapsible=0;dropTarget=0;fillColor=none;points=[[0,0.5],[1,0.5]];portConstraint=eastwest;fontSize=16;" parent="6DgqTnudn0VtPVxvnlF_-20" vertex="1">
          <mxGeometry y="320" width="990" height="40" as="geometry" />
        </mxCell>
        <mxCell id="6DgqTnudn0VtPVxvnlF_-49" value="..." style="shape=partialRectangle;html=1;whiteSpace=wrap;connectable=0;strokeColor=inherit;overflow=hidden;fillColor=none;top=0;left=0;bottom=0;right=0;pointerEvents=1;fontSize=16;" parent="6DgqTnudn0VtPVxvnlF_-48" vertex="1">
          <mxGeometry width="830" height="40" as="geometry">
            <mxRectangle width="830" height="40" as="alternateBounds" />
          </mxGeometry>
        </mxCell>
        <mxCell id="6DgqTnudn0VtPVxvnlF_-50" style="shape=partialRectangle;html=1;whiteSpace=wrap;connectable=0;strokeColor=inherit;overflow=hidden;fillColor=none;top=0;left=0;bottom=0;right=0;pointerEvents=1;fontSize=16;" parent="6DgqTnudn0VtPVxvnlF_-48" vertex="1">
          <mxGeometry x="830" width="160" height="40" as="geometry">
            <mxRectangle width="160" height="40" as="alternateBounds" />
          </mxGeometry>
        </mxCell>
        <mxCell id="6DgqTnudn0VtPVxvnlF_-51" style="shape=tableRow;horizontal=0;startSize=0;swimlaneHead=0;swimlaneBody=0;strokeColor=inherit;top=0;left=0;bottom=0;right=0;collapsible=0;dropTarget=0;fillColor=none;points=[[0,0.5],[1,0.5]];portConstraint=eastwest;fontSize=16;" parent="6DgqTnudn0VtPVxvnlF_-20" vertex="1">
          <mxGeometry y="360" width="990" height="40" as="geometry" />
        </mxCell>
        <mxCell id="6DgqTnudn0VtPVxvnlF_-52" value="..." style="shape=partialRectangle;html=1;whiteSpace=wrap;connectable=0;strokeColor=inherit;overflow=hidden;fillColor=none;top=0;left=0;bottom=0;right=0;pointerEvents=1;fontSize=16;" parent="6DgqTnudn0VtPVxvnlF_-51" vertex="1">
          <mxGeometry width="830" height="40" as="geometry">
            <mxRectangle width="830" height="40" as="alternateBounds" />
          </mxGeometry>
        </mxCell>
        <mxCell id="6DgqTnudn0VtPVxvnlF_-53" style="shape=partialRectangle;html=1;whiteSpace=wrap;connectable=0;strokeColor=inherit;overflow=hidden;fillColor=none;top=0;left=0;bottom=0;right=0;pointerEvents=1;fontSize=16;" parent="6DgqTnudn0VtPVxvnlF_-51" vertex="1">
          <mxGeometry x="830" width="160" height="40" as="geometry">
            <mxRectangle width="160" height="40" as="alternateBounds" />
          </mxGeometry>
        </mxCell>
        <mxCell id="6DgqTnudn0VtPVxvnlF_-54" value="Default &#39;A&#39;" style="text;strokeColor=none;fillColor=none;align=left;verticalAlign=middle;spacingLeft=4;spacingRight=4;overflow=hidden;points=[[0,0.5],[1,0.5]];portConstraint=eastwest;rotatable=0;whiteSpace=wrap;html=1;fontColor=light-dark(#000000,#7D7D7D);" parent="1" vertex="1">
          <mxGeometry x="190" y="107.5" width="80" height="30" as="geometry" />
        </mxCell>
        <mxCell id="6DgqTnudn0VtPVxvnlF_-55" value="" style="verticalLabelPosition=bottom;shadow=0;dashed=0;align=center;html=1;verticalAlign=top;strokeWidth=1;shape=mxgraph.mockup.navigation.scrollBar;strokeColor=#999999;barPos=20;fillColor2=#99ddff;strokeColor2=none;direction=north;" parent="1" vertex="1">
          <mxGeometry x="1040" y="60" width="20" height="480" as="geometry" />
        </mxCell>
      </root>
    </mxGraphModel>
  </diagram>
</mxfile>
